HIERARCHY
ROOT Hips
{
	OFFSET 0.00000 0.00000 0.00000
	CHANNELS 6 Xposition Yposition Zposition Zrotation Yrotation Xrotation 
	JOINT RightUpLegDummy
	{
		OFFSET 0 0 0
		CHANNELS 3 Zrotation Yrotation Xrotation
		JOINT RightUpLeg
		{
			OFFSET -3.52197 -3.41223 0.04002
			CHANNELS 3 Zrotation Yrotation Xrotation
			JOINT RightLeg
			{
				OFFSET 0.00006 -17.42390 1.60435
				CHANNELS 3 Zrotation Yrotation Xrotation
				JOINT RightFoot
				{
					OFFSET 0.06153 -16.50078 -1.63901
					CHANNELS 3 Zrotation Yrotation Xrotation
					JOINT RightToes
					{
						OFFSET 0.00298 -1.73825 3.34613
						CHANNELS 3 Zrotation Yrotation Xrotation
						End Site
						{
							OFFSET 0.00480 -0.05416 3.85043
						}
					}
				}
			}
		}
	}
	JOINT SpineDummy
	{
		OFFSET 0 0 0
		CHANNELS 3 Zrotation Yrotation Xrotation
		JOINT Spine
		{
			OFFSET 0.00000 4.68130 0.00000
			CHANNELS 3 Zrotation Yrotation Xrotation
			JOINT Spine1
			{
				OFFSET -0.00000 10.10138 0.05002
				CHANNELS 3 Zrotation Yrotation Xrotation
				JOINT HEadDummy
				{
					OFFSET 0 0 0
					CHANNELS 3 Zrotation Yrotation Xrotation
					JOINT Head
					{
						OFFSET -0.00000 3.43865 0.00438
						CHANNELS 3 Zrotation Yrotation Xrotation
						End Site
						{
							OFFSET -0.11417 5.02924 0.98962
						}
					}
				}
				JOINT LeftShoulder1Dummy
				{
					OFFSET 0 0 0
					CHANNELS 3 Zrotation Yrotation Xrotation
					JOINT LeftShoulder1
					{
						OFFSET 3.53937 -0.14262 -0.08662
						CHANNELS 3 Zrotation Yrotation Xrotation
						JOINT LeftArm
						{
							OFFSET 4.04833 -0.00133 0.12681
							CHANNELS 3 Zrotation Yrotation Xrotation
							JOINT LeftForeArm
							{
								OFFSET 10.33880 -0.01036 -0.55515
								CHANNELS 3 Zrotation Yrotation Xrotation
								JOINT LeftHand
								{
									OFFSET 8.69677 0.07543 0.40060
									CHANNELS 3 Zrotation Yrotation Xrotation
									End Site
									{
										OFFSET 5.28377 -0.21905 0.59205
									}
								}
							}
						}
					}
				}
				JOINT RightShoulderDummy
				{
					OFFSET 0 0 0
					CHANNELS 3 Zrotation Yrotation Xrotation
					JOINT RightShoulder
					{
						OFFSET -3.53937 -0.14262 -0.08660
						CHANNELS 3 Zrotation Yrotation Xrotation
						JOINT RightArm
						{
							OFFSET -4.04833 -0.00133 0.12683
							CHANNELS 3 Zrotation Yrotation Xrotation
							JOINT RightForeArm
							{
								OFFSET -10.37987 -0.01039 -0.55511
								CHANNELS 3 Zrotation Yrotation Xrotation
								JOINT RightHand
								{
									OFFSET -8.67398 0.07538 0.40058
									CHANNELS 3 Zrotation Yrotation Xrotation
									End Site
									{
										OFFSET -5.24810 -0.21916 0.59204
									}
								}
							}
						}
					}
				}
			}
		}
	}
	JOINT LeftUpLegDummy
	{
		OFFSET 0 0 0
		CHANNELS 3 Zrotation Yrotation Xrotation
		JOINT LeftUpLeg
		{
			OFFSET 3.52197 -3.41223 0.04002
			CHANNELS 3 Zrotation Yrotation Xrotation
			JOINT LeftLeg
			{
				OFFSET -0.00012 -17.42399 1.60337
				CHANNELS 3 Zrotation Yrotation Xrotation
				JOINT LeftFoot
				{
					OFFSET -0.09972 -16.50070 -1.63802
					CHANNELS 3 Zrotation Yrotation Xrotation
					JOINT LeftToes
					{
						OFFSET -0.01575 -1.73823 3.34611
						CHANNELS 3 Zrotation Yrotation Xrotation
						End Site
						{
							OFFSET 0.03150 -0.01868 3.85031
						}
					}
				}
			}
		}
	}
}
MOTION
Frames: 19
Frame Time: 0.033333
0.9686 40.2811 -75.8811 -1.3394 -0.9015 -1.9833 0.0000 0.0000 0.0000 2.3554 -1.0396 2.0062 -0.9905 -1.3596 4.6268 -3.2791 0.1735 -4.5285 0.0000 -0.0000 0.0000 0.0000 0.0000 0.0000 0.2810 -0.1802 1.0837 3.2712 -0.8427 0.8546 -0.0000 0.0000 -0.0000 0.5977 -2.7499 -2.8730 -0.0000 0.0000 -0.0000 -34.1667 -2.6879 2.4890 -45.4607 -15.1810 -16.5775 -10.7397 5.1189 48.2938 14.1879 -3.5801 -1.0688 -0.0000 0.0000 -0.0000 34.0682 5.0352 3.4223 40.3620 6.9622 -20.2545 9.3071 0.1068 20.5052 -10.3029 2.4450 -0.6751 0.0000 0.0000 0.0000 0.7173 1.3216 0.0682 0.9476 3.5080 6.7124 2.9766 -0.1399 -4.9235 0.0000 0.0000 -0.0000
0.9639 40.2811 -75.8827 -1.3366 -0.8737 -1.9833 0.0000 0.0000 0.0000 2.3657 -1.0275 2.0030 -1.0053 -1.3940 4.6368 -3.2726 0.1731 -4.5285 0.0000 -0.0000 0.0000 0.0000 0.0000 0.0000 0.2951 -0.1608 1.1402 3.2357 -0.8121 0.7156 -0.0000 0.0000 -0.0000 0.6683 -2.7432 -2.7952 -0.0000 0.0000 -0.0000 -34.1226 -2.6736 2.4804 -45.4397 -15.1373 -16.7883 -10.6389 5.1127 48.5484 14.2658 -3.7800 -1.0981 -0.0000 0.0000 -0.0000 34.1629 5.0507 3.4367 40.3175 6.7775 -20.3142 9.2949 0.0710 20.4555 -10.3495 2.1624 -0.6552 0.0000 0.0000 0.0000 0.7275 1.3215 0.0687 0.9348 3.4751 6.7161 2.9396 -0.1376 -4.9234 0.0000 0.0000 -0.0000
0.9552 40.2811 -75.8887 -1.3268 -0.8145 -1.9772 0.0000 0.0000 0.0000 2.3678 -1.0279 1.9806 -1.0092 -1.4479 4.6623 -3.2438 0.1713 -4.5284 0.0000 -0.0000 0.0000 0.0000 0.0000 0.0000 0.2889 -0.1328 1.2175 3.2124 -0.7714 0.4882 -0.0000 0.0000 -0.0000 0.7811 -2.7057 -2.6306 -0.0000 0.0000 -0.0000 -34.0831 -2.6450 2.4665 -45.3710 -14.9989 -17.1567 -10.4602 5.1016 49.0027 14.3760 -4.1512 -1.1502 -0.0000 0.0000 -0.0000 34.2256 5.0614 3.4464 40.3300 6.4753 -20.4958 9.2416 -0.0710 20.4154 -10.3457 1.8305 -0.6280 0.0000 0.0000 0.0000 0.7331 1.3216 0.0295 0.9244 3.4077 6.7481 2.9193 -0.1363 -4.9233 0.0000 0.0000 -0.0000
0.9457 40.2811 -75.8983 -1.3231 -0.7196 -1.9391 0.0000 0.0000 0.0000 2.3713 -1.0408 1.9288 -0.9980 -1.5268 4.6654 -3.2098 0.1691 -4.5251 0.0000 -0.0000 0.0000 0.0000 0.0000 0.0000 0.2533 -0.1258 1.2496 3.2312 -0.7606 0.3012 -0.0000 0.0000 -0.0000 0.8673 -2.6361 -2.4872 -0.0000 0.0000 -0.0000 -34.0816 -2.6336 2.4619 -45.2672 -14.7987 -17.5309 -10.2752 5.0921 49.4012 14.4787 -4.3442 -1.1815 -0.0000 0.0000 -0.0000 34.1905 5.0560 3.4412 40.4147 6.2273 -20.7576 9.1532 -0.3657 20.5280 -10.2133 1.8673 -0.6226 0.0000 0.0000 0.0000 0.7440 1.3216 -0.0586 0.9116 3.3088 6.7870 2.9100 -0.1357 -4.9155 0.0000 0.0000 -0.0000
0.9373 40.2824 -75.9068 -1.3235 -0.5975 -1.8779 0.0000 0.0000 0.0000 2.3721 -1.0547 1.8779 -0.9875 -1.6309 4.6207 -3.2073 0.1688 -4.5055 0.0000 -0.0000 0.0000 0.0000 0.0000 0.0000 0.2178 -0.1343 1.2144 3.2510 -0.7684 0.1969 -0.0000 0.0000 -0.0000 0.9097 -2.6215 -2.4536 -0.0000 0.0000 -0.0000 -34.1069 -2.6396 2.4650 -45.1422 -14.6156 -17.8484 -10.1166 5.0869 49.6391 14.6205 -4.1482 -1.1702 -0.0000 0.0000 -0.0000 34.1079 5.0435 3.4291 40.5175 6.0316 -20.9982 9.0685 -0.7215 20.7322 -10.0944 2.0611 -0.6306 0.0000 0.0000 0.0000 0.7627 1.3265 -0.1526 0.8778 3.1915 6.7777 2.8893 -0.1343 -4.8927 0.0000 0.0000 -0.0000
0.9303 40.2861 -75.9113 -1.3135 -0.4969 -1.8106 0.0000 0.0000 0.0000 2.3635 -1.0763 1.8431 -0.9719 -1.7047 4.5401 -3.2314 0.1703 -4.4753 0.0000 -0.0000 0.0000 0.0000 0.0000 0.0000 0.2015 -0.1220 1.1376 3.2371 -0.7508 0.1372 -0.0000 0.0000 -0.0000 0.9446 -2.7091 -2.4946 -0.0000 0.0000 -0.0000 -34.1540 -2.6308 2.4629 -44.9822 -14.4672 -18.0842 -10.0047 5.0840 49.7794 14.8114 -3.7391 -1.1368 -0.0000 0.0000 -0.0000 34.0303 5.0337 3.4184 40.6014 5.7835 -21.1574 9.0167 -1.0002 20.8480 -10.1548 1.9504 -0.6256 0.0000 0.0000 0.0000 0.7766 1.3414 -0.2121 0.8242 3.0880 6.7032 2.8773 -0.1336 -4.8511 0.0000 0.0000 -0.0000
0.9238 40.2907 -75.9139 -1.2988 -0.4621 -1.7521 0.0000 0.0000 0.0000 2.3415 -1.1109 1.8219 -0.9347 -1.7005 4.4501 -3.2463 0.1712 -4.4371 0.0000 -0.0000 0.0000 0.0000 0.0000 0.0000 0.1970 -0.0731 1.0719 3.2087 -0.6934 0.0819 -0.0000 0.0000 -0.0000 1.0133 -2.8089 -2.5403 -0.0000 0.0000 -0.0000 -34.2136 -2.6043 2.4586 -44.7840 -14.3064 -18.2315 -9.9521 5.0805 49.9164 14.9660 -3.4988 -1.1198 -0.0000 0.0000 -0.0000 33.9850 5.0295 3.4128 40.6313 5.4731 -21.2652 8.9884 -1.1941 20.8680 -10.3125 1.6028 -0.6074 0.0000 0.0000 0.0000 0.7911 1.3613 -0.2389 0.7693 3.0152 6.6126 2.8854 -0.1341 -4.8013 0.0000 0.0000 -0.0000
0.9173 40.2936 -75.9195 -1.3011 -0.4617 -1.7220 0.0000 0.0000 0.0000 2.3360 -1.1386 1.8191 -0.8917 -1.6701 4.3723 -3.2434 0.1708 -4.3944 0.0000 -0.0000 0.0000 0.0000 0.0000 0.0000 0.1981 -0.0164 1.0615 3.1890 -0.6303 0.0441 -0.0000 0.0000 -0.0000 1.0959 -2.7879 -2.6361 -0.0000 0.0000 -0.0000 -34.2376 -2.5916 2.4548 -44.5994 -14.1399 -18.3223 -9.9404 5.0770 50.0369 15.0079 -3.5622 -1.1308 -0.0000 0.0000 -0.0000 33.9941 5.0301 3.4137 40.5779 5.2086 -21.3733 8.9596 -1.3841 20.9389 -10.3797 1.4649 -0.6002 0.0000 0.0000 0.0000 0.8247 1.3902 -0.2532 0.7251 2.9522 6.5642 2.8830 -0.1339 -4.7687 0.0000 0.0000 -0.0000
0.9116 40.2940 -75.9304 -1.3170 -0.4118 -1.7341 0.0000 0.0000 0.0000 2.3559 -1.1423 1.8400 -0.8811 -1.7147 4.3276 -3.2386 0.1704 -4.3621 0.0000 -0.0000 0.0000 0.0000 0.0000 0.0000 0.2089 0.0107 1.1172 3.1572 -0.5969 0.0461 -0.0000 0.0000 -0.0000 1.1209 -2.6137 -2.8633 -0.0000 0.0000 -0.0000 -34.1782 -2.5964 2.4529 -44.4965 -14.0455 -18.3967 -9.9368 5.0796 50.0445 14.9787 -3.6723 -1.1420 -0.0000 0.0000 -0.0000 34.0545 5.0333 3.4204 40.4745 5.0495 -21.4930 8.9220 -1.5798 21.0971 -10.3743 1.5930 -0.6104 0.0000 0.0000 0.0000 0.8630 1.4168 -0.2613 0.6946 2.8686 6.5622 2.8575 -0.1323 -4.7619 0.0000 0.0000 -0.0000
0.9083 40.2939 -75.9447 -1.3157 -0.2841 -1.7720 0.0000 0.0000 0.0000 2.3638 -1.1418 1.8666 -0.9035 -1.8427 4.3265 -3.2307 0.1699 -4.3543 0.0000 -0.0000 0.0000 0.0000 0.0000 0.0000 0.2236 0.0033 1.2062 3.0844 -0.5919 0.0725 -0.0000 0.0000 -0.0000 1.0658 -2.3863 -3.1498 -0.0000 0.0000 -0.0000 -34.0557 -2.5872 2.4417 -44.4844 -14.0409 -18.4409 -9.9354 5.0852 49.9112 14.9746 -3.5538 -1.1272 -0.0000 0.0000 -0.0000 34.1267 5.0397 3.4292 40.3930 4.9497 -21.6171 8.8794 -1.7430 21.2424 -10.4284 1.6694 -0.6199 0.0000 0.0000 0.0000 0.8646 1.4139 -0.2610 0.6781 2.7635 6.5633 2.8474 -0.1316 -4.7538 0.0000 0.0000 -0.0000
0.9078 40.2948 -75.9586 -1.2877 -0.1419 -1.7981 0.0000 0.0000 0.0000 2.3331 -1.1653 1.8721 -0.9183 -1.9606 4.3455 -3.2098 0.1686 -4.3618 0.0000 -0.0000 0.0000 0.0000 0.0000 0.0000 0.2346 -0.0148 1.2716 2.9776 -0.5915 0.1048 -0.0000 0.0000 -0.0000 1.0012 -2.2445 -3.3252 -0.0000 0.0000 -0.0000 -33.9397 -2.5636 2.4253 -44.5084 -14.0520 -18.4361 -9.9398 5.0848 49.7718 15.0243 -3.2999 -1.0999 -0.0000 0.0000 -0.0000 34.1871 5.0478 3.4376 40.3404 4.8669 -21.7383 8.8388 -1.8792 21.3114 -10.5005 1.6356 -0.6217 0.0000 0.0000 0.0000 0.8309 1.3890 -0.2592 0.6590 2.6553 6.5334 2.8779 -0.1336 -4.7159 0.0000 0.0000 -0.0000
0.9097 40.2960 -75.9702 -1.2649 -0.0545 -1.7902 0.0000 0.0000 0.0000 2.2974 -1.1950 1.8516 -0.9103 -2.0133 4.3438 -3.1810 0.1667 -4.3577 0.0000 -0.0000 0.0000 0.0000 0.0000 0.0000 0.2568 -0.0206 1.2819 2.8692 -0.5790 0.1512 -0.0000 0.0000 -0.0000 0.9848 -2.2202 -3.3496 -0.0000 0.0000 -0.0000 -33.8717 -2.5612 2.4184 -44.5222 -14.0478 -18.4467 -9.9207 5.0844 49.7978 15.0915 -3.2118 -1.0942 -0.0000 0.0000 -0.0000 34.2486 5.0571 3.4467 40.2682 4.8148 -21.8240 8.8152 -1.9721 21.3102 -10.4875 1.6684 -0.6245 0.0000 0.0000 0.0000 0.8196 1.3958 -0.2722 0.6053 2.5506 6.4839 2.9202 -0.1363 -4.6598 0.0000 0.0000 -0.0000
0.9131 40.2971 -75.9817 -1.2752 -0.0214 -1.7534 0.0000 0.0000 0.0000 2.3036 -1.1871 1.8101 -0.9108 -2.0439 4.3143 -3.1510 0.1647 -4.3293 0.0000 -0.0000 0.0000 0.0000 0.0000 0.0000 0.3076 -0.0081 1.2677 2.7899 -0.5546 0.1967 -0.0000 0.0000 -0.0000 0.9727 -2.1938 -3.3347 -0.0000 0.0000 -0.0000 -33.8493 -2.5829 2.4161 -44.5297 -14.0815 -18.5387 -9.8482 5.0799 49.9761 15.1753 -3.3292 -1.1151 -0.0000 0.0000 -0.0000 34.3152 5.0678 3.4568 40.1722 4.7980 -21.8253 8.8207 -1.9366 21.2683 -10.4765 1.6928 -0.6248 0.0000 0.0000 0.0000 0.8638 1.4596 -0.3203 0.5140 2.4550 6.4555 2.9482 -0.1381 -4.6202 0.0000 0.0000 -0.0000
0.9181 40.2973 -75.9966 -1.3054 -0.0057 -1.7031 0.0000 0.0000 0.0000 2.3406 -1.1435 1.7410 -0.9339 -2.0925 4.2964 -3.1320 0.1634 -4.2899 0.0000 -0.0000 0.0000 0.0000 0.0000 0.0000 0.3727 0.0097 1.2890 2.7475 -0.5307 0.1861 -0.0000 0.0000 -0.0000 0.9159 -2.0478 -3.3459 -0.0000 0.0000 -0.0000 -33.8494 -2.5911 2.4157 -44.5671 -14.1580 -18.6425 -9.7756 5.0770 50.1022 15.2987 -3.3991 -1.1332 -0.0000 0.0000 -0.0000 34.3701 5.0813 3.4670 40.0867 4.8001 -21.7384 8.8476 -1.7702 21.2507 -10.5516 1.5312 -0.6159 0.0000 0.0000 0.0000 0.9231 1.5319 -0.4115 0.4319 2.3915 6.4746 2.9794 -0.1401 -4.6085 0.0000 0.0000 -0.0000
0.9251 40.2957 -76.0135 -1.3278 0.0040 -1.6556 0.0000 0.0000 0.0000 2.3627 -1.1112 1.6467 -0.9500 -2.1315 4.3240 -3.1555 0.1648 -4.2579 0.0000 -0.0000 0.0000 0.0000 0.0000 0.0000 0.4259 0.0138 1.3555 2.7146 -0.5205 0.1195 -0.0000 0.0000 -0.0000 0.8667 -1.8386 -3.3409 -0.0000 0.0000 -0.0000 -33.8337 -2.5754 2.4163 -44.6644 -14.1899 -18.6317 -9.7795 5.0791 50.0293 15.3805 -3.3245 -1.1301 -0.0000 0.0000 -0.0000 34.4114 5.0968 3.4769 40.0165 4.8467 -21.6016 8.8878 -1.6111 21.2712 -10.5221 1.3519 -0.5993 0.0000 0.0000 0.0000 0.9469 1.5587 -0.5212 0.4006 2.3766 6.5298 3.0270 -0.1432 -4.6097 0.0000 0.0000 -0.0000
0.9339 40.2933 -76.0268 -1.3422 -0.0075 -1.6266 0.0000 0.0000 0.0000 2.3674 -1.0992 1.5575 -0.9519 -2.1395 4.3866 -3.2210 0.1689 -4.2383 0.0000 -0.0000 0.0000 0.0000 0.0000 0.0000 0.4673 0.0015 1.4114 2.6585 -0.5210 0.0951 -0.0000 0.0000 -0.0000 0.9022 -1.7081 -3.2852 -0.0000 0.0000 -0.0000 -33.7806 -2.5662 2.4169 -44.8085 -14.1395 -18.5147 -9.8463 5.0844 49.8257 15.2635 -3.3329 -1.1222 -0.0000 0.0000 -0.0000 34.4448 5.1066 3.4836 39.9607 4.9846 -21.4225 8.9567 -1.5257 21.2035 -10.2354 1.4061 -0.5869 0.0000 0.0000 0.0000 0.9460 1.5552 -0.6059 0.4050 2.3925 6.5942 3.0608 -0.1454 -4.6177 0.0000 0.0000 -0.0000
0.9427 40.2908 -76.0339 -1.3668 -0.0458 -1.6209 0.0000 0.0000 0.0000 2.3955 -1.0585 1.4997 -0.9810 -2.1517 4.4548 -3.2541 0.1710 -4.2291 0.0000 -0.0000 0.0000 0.0000 0.0000 0.0000 0.5093 -0.0099 1.4151 2.5941 -0.5264 0.1823 -0.0000 0.0000 -0.0000 0.9994 -1.6836 -3.1956 -0.0000 0.0000 -0.0000 -33.7393 -2.5768 2.4180 -44.9364 -14.0775 -18.3920 -9.9125 5.0901 49.6119 14.9447 -3.5669 -1.1264 -0.0000 0.0000 -0.0000 34.4591 5.1092 3.4861 39.9566 5.1987 -21.1829 9.0606 -1.4018 20.9981 -9.9591 1.5352 -0.5808 0.0000 0.0000 0.0000 0.9585 1.5621 -0.6525 0.4134 2.4156 6.6627 3.0524 -0.1448 -4.6431 0.0000 0.0000 -0.0000
0.9506 40.2878 -76.0390 -1.4019 -0.0923 -1.6296 0.0000 0.0000 0.0000 2.4542 -0.9744 1.4649 -1.0486 -2.1893 4.5212 -3.2022 0.1677 -4.2324 0.0000 -0.0000 0.0000 0.0000 0.0000 0.0000 0.5482 -0.0119 1.3992 2.5621 -0.5330 0.3122 -0.0000 0.0000 -0.0000 1.0734 -1.7063 -3.0726 -0.0000 0.0000 -0.0000 -33.7839 -2.5911 2.4265 -44.9885 -14.0552 -18.2721 -9.9864 5.0962 49.3759 14.6659 -3.7953 -1.1320 -0.0000 0.0000 -0.0000 34.4540 5.1082 3.4863 40.0205 5.4060 -20.9181 9.1589 -1.1501 20.8742 -10.0022 1.4695 -0.5778 0.0000 0.0000 0.0000 0.9828 1.5737 -0.6872 0.4294 2.4439 6.7492 3.0233 -0.1429 -4.6865 0.0000 0.0000 -0.0000
0.9578 40.2846 -76.0454 -1.4298 -0.1271 -1.6409 0.0000 0.0000 0.0000 2.4984 -0.9066 1.4345 -1.1008 -2.2126 4.5871 -3.1275 0.1629 -4.2460 0.0000 -0.0000 0.0000 0.0000 0.0000 0.0000 0.5765 -0.0185 1.4149 2.5570 -0.5371 0.3707 -0.0000 0.0000 -0.0000 1.0879 -1.7699 -2.8973 -0.0000 0.0000 -0.0000 -33.8958 -2.6027 2.4380 -44.9795 -14.0368 -18.1012 -10.1064 5.1033 49.0897 14.6478 -3.7475 -1.1247 -0.0000 0.0000 -0.0000 34.4539 5.1056 3.4852 40.1092 5.5432 -20.7064 9.2116 -0.8447 21.0000 -10.1609 1.3736 -0.5779 0.0000 0.0000 0.0000 0.9946 1.5706 -0.7275 0.4559 2.4728 6.8454 3.0156 -0.1425 -4.7301 0.0000 0.0000 -0.0000
